<svg width="195" height="54" viewBox="0 0 195 54" fill="none" xmlns="http://www.w3.org/2000/svg">
<g clip-path="url(#clip0_288_400)">
<path d="M24.3639 0V53.9999L0.650601 40.7486L14.5226 32.7394C15.1134 33.3751 15.9584 33.7714 16.8932 33.7714C18.6954 33.7714 20.1537 32.3132 20.1537 30.5109C20.1537 28.7087 18.6954 27.2505 16.8932 27.2505C15.0909 27.2505 13.6327 28.7087 13.6327 30.5109C13.6327 30.7876 13.6701 31.0643 13.7374 31.3186L0 39.2454V13.2962L24.3639 0Z" fill="#1C3968"/>
<path d="M27.7514 30.5259C26.9512 32.1412 27.6093 34.1005 29.2171 34.9006C29.4265 35.0053 29.6434 35.0876 29.8602 35.1399V51.0011L24.3638 53.9999V0L47.8677 13.1391L40.741 17.9476C40.2025 17.5513 39.5295 17.312 38.8116 17.312C37.0094 17.312 35.5511 18.7777 35.5511 20.5724C35.5511 21.3128 35.7979 22.0008 36.2167 22.5392L31.5802 28.8508C30.0921 28.417 28.4618 29.0976 27.7514 30.5259Z" fill="#1D8598"/>
<path d="M48.7196 14.5227V40.6963L31.4824 50.1113V35.14C32.3648 34.9082 33.1501 34.3099 33.5913 33.4275C34.2269 32.1488 33.9427 30.6456 32.9855 29.681L37.4874 23.5489C37.8912 23.7358 38.3399 23.833 38.811 23.833C40.6133 23.833 42.0715 22.3748 42.0715 20.5725C42.0715 20.0865 41.9668 19.6228 41.7649 19.2115L48.7196 14.5227Z" fill="#1D8598"/>
</g>
<path d="M63.4844 27.5709V13.4371H69.6023C70.8676 13.4371 71.9579 13.6458 72.8732 14.063C73.7885 14.4669 74.4952 15.0524 74.9933 15.8197C75.4913 16.5869 75.7403 17.5022 75.7403 18.5656C75.7403 19.6156 75.4913 20.5242 74.9933 21.2914C74.4952 22.0587 73.7885 22.651 72.8732 23.0683C71.9579 23.4721 70.8676 23.674 69.6023 23.674H65.3016L66.7553 22.2V27.5709H63.4844ZM66.7553 22.5635L65.3016 21.0088H69.4205C70.4301 21.0088 71.1839 20.7934 71.6819 20.3626C72.18 19.9319 72.429 19.3329 72.429 18.5656C72.429 17.7849 72.18 17.1792 71.6819 16.7485C71.1839 16.3177 70.4301 16.1023 69.4205 16.1023H65.3016L66.7553 14.5476V22.5635Z" fill="#1C3968"/>
<path d="M78.0756 27.5709V13.4371H84.1127C86.078 13.4371 87.6057 13.8948 88.6961 14.8101C89.7864 15.712 90.3315 16.9638 90.3315 18.5656C90.3315 19.6156 90.0825 20.5242 89.5845 21.2914C89.0864 22.0452 88.3797 22.624 87.4644 23.0279C86.5491 23.4317 85.4588 23.6336 84.1935 23.6336H79.8928L81.3465 22.2V27.5709H78.0756ZM87.0606 27.5709L83.5272 22.4423H87.0202L90.594 27.5709H87.0606ZM81.3465 22.5635L79.8928 21.029H84.0117C85.0213 21.029 85.7751 20.8136 86.2731 20.3828C86.7712 19.9386 87.0202 19.3329 87.0202 18.5656C87.0202 17.7849 86.7712 17.1792 86.2731 16.7485C85.7751 16.3177 85.0213 16.1023 84.0117 16.1023H79.8928L81.3465 14.5476V22.5635Z" fill="#1C3968"/>
<path d="M99.7881 27.8132C98.6708 27.8132 97.6343 27.6314 96.6786 27.268C95.7364 26.9046 94.9153 26.393 94.2153 25.7335C93.5288 25.0739 92.9904 24.2999 92.6 23.4115C92.2231 22.5231 92.0347 21.5539 92.0347 20.504C92.0347 19.4541 92.2231 18.4849 92.6 17.5965C92.9904 16.7081 93.5356 15.9341 94.2355 15.2745C94.9355 14.6149 95.7566 14.1034 96.6988 13.74C97.6411 13.3765 98.6641 13.1948 99.7679 13.1948C100.885 13.1948 101.908 13.3765 102.837 13.74C103.779 14.1034 104.594 14.6149 105.28 15.2745C105.98 15.9341 106.525 16.7081 106.916 17.5965C107.306 18.4714 107.501 19.4406 107.501 20.504C107.501 21.5539 107.306 22.5298 106.916 23.4317C106.525 24.3201 105.98 25.0941 105.28 25.7537C104.594 26.3998 103.779 26.9046 102.837 27.268C101.908 27.6314 100.892 27.8132 99.7881 27.8132ZM99.7679 25.0268C100.401 25.0268 100.979 24.9191 101.504 24.7037C102.043 24.4884 102.514 24.1788 102.918 23.7749C103.321 23.3711 103.631 22.8933 103.846 22.3414C104.075 21.7895 104.19 21.177 104.19 20.504C104.19 19.831 104.075 19.2185 103.846 18.6666C103.631 18.1147 103.321 17.6369 102.918 17.233C102.527 16.8292 102.063 16.5196 101.524 16.3042C100.986 16.0889 100.401 15.9812 99.7679 15.9812C99.1352 15.9812 98.5497 16.0889 98.0112 16.3042C97.4863 16.5196 97.0219 16.8292 96.6181 17.233C96.2142 17.6369 95.8979 18.1147 95.6691 18.6666C95.4537 19.2185 95.346 19.831 95.346 20.504C95.346 21.1636 95.4537 21.776 95.6691 22.3414C95.8979 22.8933 96.2075 23.3711 96.5979 23.7749C97.0017 24.1788 97.4728 24.4884 98.0112 24.7037C98.5497 24.9191 99.1352 25.0268 99.7679 25.0268Z" fill="#1C3968"/>
<path d="M113.746 27.5709L107.648 13.4371H111.182L116.512 25.9556H114.432L119.844 13.4371H123.094L116.976 27.5709H113.746Z" fill="#1C3968"/>
<path d="M124.274 27.5709V13.4371H134.956V16.062H127.525V24.946H135.218V27.5709H124.274ZM127.283 21.6751V19.131H134.087V21.6751H127.283Z" fill="#1C3968"/>
<path d="M137.821 27.5709V13.4371H140.526L148.865 23.6134H147.553V13.4371H150.783V27.5709H148.098L139.739 17.3946H141.051V27.5709H137.821Z" fill="#1C3968"/>
<path d="M157.055 27.5709V16.1023H152.532V13.4371H164.849V16.1023H160.326V27.5709H157.055Z" fill="#1C3968"/>
<path d="M172.612 27.8132C170.606 27.8132 169.038 27.2545 167.907 26.1373C166.777 25.0201 166.211 23.425 166.211 21.352V13.4371H169.482V21.2309C169.482 22.5769 169.758 23.5461 170.31 24.1384C170.862 24.7306 171.636 25.0268 172.632 25.0268C173.628 25.0268 174.402 24.7306 174.954 24.1384C175.506 23.5461 175.782 22.5769 175.782 21.2309V13.4371H179.013V21.352C179.013 23.425 178.447 25.0201 177.317 26.1373C176.186 27.2545 174.618 27.8132 172.612 27.8132Z" fill="#1C3968"/>
<path d="M186.889 27.8132C185.758 27.8132 184.675 27.6651 183.638 27.3689C182.602 27.0594 181.767 26.6623 181.134 26.1777L182.245 23.7144C182.851 24.1451 183.564 24.5018 184.385 24.7845C185.22 25.0537 186.061 25.1883 186.909 25.1883C187.555 25.1883 188.073 25.1277 188.464 25.0066C188.868 24.872 189.164 24.6903 189.352 24.4614C189.541 24.2326 189.635 23.9701 189.635 23.674C189.635 23.2971 189.487 23.0009 189.191 22.7856C188.894 22.5567 188.504 22.375 188.02 22.2404C187.535 22.0924 186.996 21.9577 186.404 21.8366C185.825 21.702 185.24 21.5405 184.648 21.352C184.069 21.1636 183.537 20.9213 183.053 20.6251C182.568 20.329 182.171 19.9386 181.861 19.4541C181.565 18.9695 181.417 18.3503 181.417 17.5965C181.417 16.7888 181.632 16.0552 182.063 15.3956C182.507 14.7226 183.167 14.1909 184.042 13.8006C184.93 13.3967 186.041 13.1948 187.373 13.1948C188.262 13.1948 189.137 13.3025 189.998 13.5179C190.86 13.7198 191.62 14.0294 192.28 14.4467L191.27 16.9302C190.611 16.5533 189.951 16.2773 189.292 16.1023C188.632 15.9139 187.986 15.8197 187.353 15.8197C186.721 15.8197 186.202 15.8937 185.798 16.0418C185.395 16.1898 185.105 16.385 184.93 16.6273C184.755 16.8561 184.668 17.1253 184.668 17.4349C184.668 17.7984 184.816 18.0945 185.112 18.3234C185.408 18.5387 185.798 18.7137 186.283 18.8483C186.768 18.9829 187.299 19.1175 187.878 19.2521C188.47 19.3867 189.056 19.5415 189.635 19.7165C190.227 19.8915 190.766 20.1271 191.25 20.4232C191.735 20.7194 192.125 21.1097 192.421 21.5943C192.731 22.0789 192.886 22.6914 192.886 23.4317C192.886 24.2259 192.663 24.9528 192.219 25.6123C191.775 26.2719 191.109 26.8036 190.22 27.2074C189.345 27.6112 188.235 27.8132 186.889 27.8132Z" fill="#1C3968"/>
<path d="M163.401 40.8051C162.859 40.8051 162.34 40.7341 161.843 40.5921C161.346 40.4437 160.945 40.2533 160.642 40.0209L161.175 38.8397C161.465 39.0463 161.807 39.2173 162.201 39.3529C162.601 39.482 163.004 39.5465 163.411 39.5465C163.721 39.5465 163.969 39.5175 164.156 39.4594C164.35 39.3948 164.492 39.3077 164.582 39.198C164.673 39.0882 164.718 38.9624 164.718 38.8204C164.718 38.6397 164.647 38.4977 164.505 38.3944C164.363 38.2847 164.176 38.1975 163.944 38.133C163.711 38.062 163.453 37.9975 163.169 37.9394C162.891 37.8748 162.611 37.7974 162.327 37.707C162.049 37.6166 161.794 37.5005 161.562 37.3585C161.329 37.2165 161.139 37.0293 160.991 36.7969C160.849 36.5646 160.778 36.2677 160.778 35.9062C160.778 35.519 160.881 35.1672 161.087 34.8509C161.3 34.5282 161.617 34.2733 162.036 34.0861C162.462 33.8925 162.995 33.7957 163.634 33.7957C164.06 33.7957 164.479 33.8473 164.892 33.9506C165.305 34.0474 165.67 34.1958 165.986 34.3959L165.502 35.5867C165.186 35.406 164.87 35.2737 164.553 35.1898C164.237 35.0994 163.927 35.0543 163.624 35.0543C163.321 35.0543 163.072 35.0898 162.879 35.1608C162.685 35.2318 162.546 35.3253 162.462 35.4415C162.378 35.5512 162.336 35.6803 162.336 35.8288C162.336 36.0031 162.407 36.145 162.549 36.2548C162.691 36.358 162.879 36.4419 163.111 36.5065C163.343 36.571 163.598 36.6356 163.876 36.7001C164.16 36.7647 164.44 36.8389 164.718 36.9228C165.002 37.0067 165.26 37.1197 165.493 37.2617C165.725 37.4037 165.912 37.5908 166.054 37.8232C166.203 38.0555 166.277 38.3492 166.277 38.7042C166.277 39.085 166.17 39.4336 165.957 39.7498C165.744 40.0661 165.425 40.321 164.999 40.5147C164.579 40.7083 164.047 40.8051 163.401 40.8051Z" fill="#1D8598"/>
<path d="M151.64 40.8051C151.117 40.8051 150.63 40.7212 150.178 40.5534C149.733 40.3791 149.345 40.1339 149.016 39.8176C148.687 39.5013 148.429 39.1302 148.242 38.7042C148.061 38.2782 147.971 37.8103 147.971 37.3004C147.971 36.7905 148.061 36.3225 148.242 35.8966C148.429 35.4706 148.687 35.0994 149.016 34.7832C149.352 34.4669 149.742 34.2249 150.188 34.0571C150.633 33.8828 151.12 33.7957 151.65 33.7957C152.237 33.7957 152.766 33.8989 153.237 34.1055C153.715 34.3055 154.115 34.6025 154.438 34.9962L153.431 35.9256C153.199 35.661 152.941 35.4641 152.657 35.335C152.373 35.1995 152.063 35.1317 151.727 35.1317C151.411 35.1317 151.12 35.1833 150.856 35.2866C150.591 35.3899 150.362 35.5383 150.168 35.732C149.975 35.9256 149.823 36.1547 149.713 36.4194C149.61 36.684 149.558 36.9777 149.558 37.3004C149.558 37.6231 149.61 37.9168 149.713 38.1814C149.823 38.446 149.975 38.6752 150.168 38.8688C150.362 39.0624 150.591 39.2109 150.856 39.3141C151.12 39.4174 151.411 39.469 151.727 39.469C152.063 39.469 152.373 39.4045 152.657 39.2754C152.941 39.1399 153.199 38.9366 153.431 38.6655L154.438 39.5949C154.115 39.9886 153.715 40.2888 153.237 40.4953C152.766 40.7018 152.234 40.8051 151.64 40.8051Z" fill="#1D8598"/>
<path d="M139.412 40.689V33.9119H140.98V40.689H139.412Z" fill="#1D8598"/>
<path d="M129.022 40.689V35.1898H126.853V33.9119H132.759V35.1898H130.59V40.689H129.022Z" fill="#1D8598"/>
<path d="M117.083 40.689V37.92L117.441 38.8688L114.459 33.9119H116.124L118.409 37.7167H117.451L119.745 33.9119H121.284L118.303 38.8688L118.651 37.92V40.689H117.083Z" fill="#1D8598"/>
<path d="M104.446 40.689V33.9119H106.015V39.411H109.413V40.689H104.446Z" fill="#1D8598"/>
<path d="M90.3345 40.689L93.3551 33.9119H94.9042L97.9345 40.689H96.2886L93.8102 34.7058H94.4298L91.9416 40.689H90.3345ZM91.8448 39.2367L92.2611 38.0459H95.7465L96.1725 39.2367H91.8448Z" fill="#1D8598"/>
<path d="M77.5967 40.689V33.9119H78.894L82.8925 38.7914H82.2632V33.9119H83.8122V40.689H82.5246L78.5164 35.8095H79.1457V40.689H77.5967Z" fill="#1D8598"/>
<path d="M63.4844 40.689L66.505 33.9119H68.0541L71.0844 40.689H69.4385L66.9601 34.7058H67.5797L65.0915 40.689H63.4844ZM64.9947 39.2367L65.411 38.0459H68.8964L69.3224 39.2367H64.9947Z" fill="#1D8598"/>
<defs>
<clipPath id="clip0_288_400">
<rect width="48.7197" height="53.9999" fill="white"/>
</clipPath>
</defs>
</svg>
